<svg xmlns="http://www.w3.org/2000/svg" viewBox="0 0 304 222" width="100%" style="max-width:304px" role="img" aria-label="方格纸上的长方形，长 8 格、宽 6 格" font-family="'Noto Sans CJK SC','PingFang SC','Microsoft YaHei',sans-serif">
<rect x="0" y="0" width="304" height="222" fill="#ffffff"/>
<line x1="34" y1="192" x2="34" y2="24" stroke="#bcd3f2" stroke-dasharray="3 3"/>
<line x1="58" y1="192" x2="58" y2="24" stroke="#bcd3f2" stroke-dasharray="3 3"/>
<line x1="82" y1="192" x2="82" y2="24" stroke="#bcd3f2" stroke-dasharray="3 3"/>
<line x1="106" y1="192" x2="106" y2="24" stroke="#bcd3f2" stroke-dasharray="3 3"/>
<line x1="130" y1="192" x2="130" y2="24" stroke="#bcd3f2" stroke-dasharray="3 3"/>
<line x1="154" y1="192" x2="154" y2="24" stroke="#bcd3f2" stroke-dasharray="3 3"/>
<line x1="178" y1="192" x2="178" y2="24" stroke="#bcd3f2" stroke-dasharray="3 3"/>
<line x1="202" y1="192" x2="202" y2="24" stroke="#bcd3f2" stroke-dasharray="3 3"/>
<line x1="226" y1="192" x2="226" y2="24" stroke="#bcd3f2" stroke-dasharray="3 3"/>
<line x1="250" y1="192" x2="250" y2="24" stroke="#bcd3f2" stroke-dasharray="3 3"/>
<line x1="274" y1="192" x2="274" y2="24" stroke="#bcd3f2" stroke-dasharray="3 3"/>
<line x1="34" y1="192" x2="274" y2="192" stroke="#bcd3f2" stroke-dasharray="3 3"/>
<line x1="34" y1="168" x2="274" y2="168" stroke="#bcd3f2" stroke-dasharray="3 3"/>
<line x1="34" y1="144" x2="274" y2="144" stroke="#bcd3f2" stroke-dasharray="3 3"/>
<line x1="34" y1="120" x2="274" y2="120" stroke="#bcd3f2" stroke-dasharray="3 3"/>
<line x1="34" y1="96" x2="274" y2="96" stroke="#bcd3f2" stroke-dasharray="3 3"/>
<line x1="34" y1="72" x2="274" y2="72" stroke="#bcd3f2" stroke-dasharray="3 3"/>
<line x1="34" y1="48" x2="274" y2="48" stroke="#bcd3f2" stroke-dasharray="3 3"/>
<line x1="34" y1="24" x2="274" y2="24" stroke="#bcd3f2" stroke-dasharray="3 3"/>
<polygon points="58.0,192.0 250.0,192.0 250.0,48.0 58.0,48.0" fill="#dbeafe" stroke="#2563eb" stroke-width="2"/>
</svg>